<svg width="16" height="16" viewBox="0 0 16 16" fill="none" xmlns="http://www.w3.org/2000/svg">
<path d="M15.8444 6.4332H15.2V6.4H8V9.6H12.5212C11.8616 11.4628 10.0892 12.8 8 12.8C5.3492 12.8 3.2 10.6508 3.2 8C3.2 5.3492 5.3492 3.2 8 3.2C9.2236 3.2 10.3368 3.6616 11.1844 4.4156L13.4472 2.1528C12.0184 0.8212 10.1072 0 8 0C3.582 0 0 3.582 0 8C0 12.418 3.582 16 8 16C12.418 16 16 12.418 16 8C16 7.4636 15.9448 6.94 15.8444 6.4332Z" fill="#FFC107"/>
<path d="M1 4.13578L3.6232 6C4.33299 4.2971 6.05198 3.09478 8.06359 3.09478C9.28476 3.09478 10.3958 3.5412 11.2417 4.27041L13.5 2.08201C12.074 0.794197 10.1666 0 8.06359 0C4.99687 0 2.33735 1.67776 1 4.13578Z" fill="#FF3D00"/>
<path d="M8.13021 16C10.199 16 12.0788 15.1941 13.5 13.8836L11.0211 11.7485C10.19 12.3919 9.1744 12.7398 8.13021 12.739C6.04701 12.739 4.27818 11.3869 3.61181 9.5L1 11.5483C2.32553 14.1885 5.01743 16 8.13021 16Z" fill="#4CAF50"/>
<path d="M15.8444 6.53306H15.2V6.5H8V9.6867H12.5212C12.2057 10.5696 11.6373 11.3411 10.8864 11.9058L10.8876 11.905L13.3636 13.9915C13.1884 14.1501 16 12.0767 16 8.09335C16 7.55918 15.9448 7.03776 15.8444 6.53306Z" fill="#1976D2"/>
</svg>
