<svg width="16" height="16" viewBox="0 0 16 16" fill="none" xmlns="http://www.w3.org/2000/svg">
<mask id="mask0_101_37167" style="mask-type:luminance" maskUnits="userSpaceOnUse" x="0" y="0" width="16" height="16">
<path fill-rule="evenodd" clip-rule="evenodd" d="M0 0H16V16H0V0Z" fill="white"/>
</mask>
<g mask="url(#mask0_101_37167)">
<path fill-rule="evenodd" clip-rule="evenodd" d="M16 8.04889C16 3.60361 12.4183 0 8 0C3.58172 0 0 3.60361 0 8.04889C0 12.0663 2.92548 15.3962 6.75 16V10.3755H4.71875V8.04889H6.75V6.27562C6.75 4.25837 7.94434 3.1441 9.77172 3.1441C10.647 3.1441 11.5625 3.3013 11.5625 3.3013V5.28208H10.5537C9.55992 5.28208 9.25 5.90252 9.25 6.53905V8.04889H11.4688L11.1141 10.3755H9.25V16C13.0745 15.3962 16 12.0663 16 8.04889Z" fill="#1877F2"/>
</g>
<path fill-rule="evenodd" clip-rule="evenodd" d="M10.5413 10.2573L10.9041 7.92233H8.6347V6.40709C8.6347 5.76829 8.9517 5.14563 9.96819 5.14563H11V3.15777C11 3.15777 10.0636 3 9.16833 3C7.29924 3 6.07763 4.11825 6.07763 6.14272V7.92233H4V10.2573H6.07763V15.9019C6.49422 15.9664 6.92121 16 7.35616 16C7.79112 16 8.21811 15.9664 8.6347 15.9019V10.2573H10.5413Z" fill="white"/>
</svg>
