<svg width="16" height="16" viewBox="0 0 16 16" fill="none" xmlns="http://www.w3.org/2000/svg">
<path fill-rule="evenodd" clip-rule="evenodd" d="M10.6786 0C10.7809 0.936845 10.4057 1.87832 9.84813 2.55466H9.84818C9.2906 3.2314 8.37553 3.75705 7.47974 3.68759C7.35767 2.76932 7.81008 1.81125 8.32667 1.21262C8.90314 0.536692 9.87489 0.0323664 10.6786 0ZM13.9966 11.7363C13.8998 11.697 11.8792 10.8768 11.8572 8.50026V8.50031C11.8394 6.51754 13.4392 5.5433 13.576 5.46C13.5789 5.45825 13.5811 5.4569 13.5826 5.45593C12.6443 4.07955 11.1831 3.89059 10.6626 3.86886C9.90197 3.79163 9.16407 4.08331 8.56149 4.3215C8.17892 4.47273 7.85089 4.6024 7.60624 4.6024C7.33327 4.6024 6.99598 4.46833 6.61753 4.31791C6.12201 4.12096 5.55593 3.89596 4.97126 3.90713C3.6156 3.92687 2.36654 4.6967 1.66763 5.91247C0.260741 8.36062 1.30851 11.9874 2.6796 13.9739C3.35052 14.945 4.15023 16.0388 5.20038 15.9989C5.67034 15.9804 6.00442 15.8379 6.34985 15.6904C6.74823 15.5204 7.1617 15.3439 7.81612 15.3439C8.44131 15.3439 8.83666 15.5153 9.21679 15.6801C9.57978 15.8375 9.92891 15.9888 10.4511 15.9792C11.539 15.9591 12.2297 14.988 12.8952 14.0133C13.6394 12.9232 13.9607 11.8668 13.9972 11.7467C13.9985 11.7426 13.9994 11.7395 14 11.7377C13.9996 11.7375 13.9984 11.737 13.9966 11.7363Z" fill="white"/>
</svg>
